<?xml version="1.0" encoding="UTF-8" standalone="no"?>
<svg
   xmlns:dc="http://purl.org/dc/elements/1.1/"
   xmlns:cc="http://creativecommons.org/ns#"
   xmlns:rdf="http://www.w3.org/1999/02/22-rdf-syntax-ns#"
   xmlns:svg="http://www.w3.org/2000/svg"
   xmlns="http://www.w3.org/2000/svg"
   xmlns:sodipodi="http://sodipodi.sourceforge.net/DTD/sodipodi-0.dtd"
   xmlns:inkscape="http://www.inkscape.org/namespaces/inkscape"
   inkscape:version="1.0beta1 (32d4812, 2019-09-19)"
   sodipodi:docname="geodesics.svg"
   viewBox="0 0 505.33334 505.33334"
   height="505.33334"
   width="505.33334"
   xml:space="preserve"
   id="svg10"
   version="1.1">
  <metadata
     id="metadata16">
    <rdf:RDF>
      <cc:Work
         rdf:about="">
        <dc:format>image/svg+xml</dc:format>
        <dc:type
           rdf:resource="http://purl.org/dc/dcmitype/StillImage" />
        <dc:title></dc:title>
      </cc:Work>
    </rdf:RDF>
  </metadata>
  <defs
     id="defs14">
    <clipPath
       id="clipPath26"
       clipPathUnits="userSpaceOnUse">
      <path
         inkscape:connector-curvature="0"
         id="path24"
         clip-rule="evenodd"
         d="M 0,0 H 375.24753 V 375.24753 H 0 Z" />
    </clipPath>
    <clipPath
       id="clipPath52"
       clipPathUnits="userSpaceOnUse">
      <path
         inkscape:connector-curvature="0"
         id="path50"
         clip-rule="evenodd"
         d="M 300.94852,75.049507 H 60.039604 V 315.20792 H 300.94852 Z" />
    </clipPath>
    <clipPath
       id="clipPath146"
       clipPathUnits="userSpaceOnUse">
      <path
         inkscape:connector-curvature="0"
         id="path144"
         clip-rule="evenodd"
         d="M 0,0 H 375.24753 V 375.24753 H 0 Z" />
    </clipPath>
    <clipPath
       id="clipPath158"
       clipPathUnits="userSpaceOnUse">
      <path
         inkscape:connector-curvature="0"
         id="path156"
         clip-rule="evenodd"
         d="m 366.55682,75.049507 h -60.7901 v 50.283163 h 60.7901 z" />
    </clipPath>
  </defs>
  <sodipodi:namedview
     inkscape:current-layer="svg10"
     inkscape:window-maximized="0"
     inkscape:window-y="23"
     inkscape:window-x="45"
     inkscape:cy="560"
     inkscape:cx="400"
     inkscape:zoom="0.35"
     showgrid="false"
     id="namedview12"
     inkscape:window-height="855"
     inkscape:window-width="1395"
     inkscape:pageshadow="2"
     inkscape:pageopacity="0"
     guidetolerance="10"
     gridtolerance="10"
     objecttolerance="10"
     borderopacity="1"
     inkscape:document-rotation="0"
     bordercolor="#666666"
     pagecolor="#ffffff" />
  <g
     transform="matrix(1.3333333,0,0,1.3333333,0,9.3e-6)"
     inkscape:label="geodesics"
     inkscape:groupmode="layer"
     id="g18">
    <g
       id="g20">
      <g
         clip-path="url(#clipPath26)"
         id="g22">
        <g
           transform="scale(0.75049508)"
           id="g28">
          <path
             inkscape:connector-curvature="0"
             id="path30"
             style="fill:#000000;fill-opacity:0;fill-rule:nonzero;stroke:none"
             d="M 0,0 H 500 V 500 H 0 Z" />
          <path
             inkscape:connector-curvature="0"
             id="path32"
             style="fill:#000000;fill-opacity:0;fill-rule:nonzero;stroke:none"
             d="M 80,100 H 401 V 420 H 80 Z" />
        </g>
        <g
           transform="matrix(0.75049508,0,0,0.75049508,180.49406,0)"
           id="g34">
          <path
             inkscape:connector-curvature="0"
             id="path36"
             style="fill:#000000;fill-opacity:1;fill-rule:nonzero;stroke:none"
             d="M 0,100 V 420" />
          <path
             inkscape:connector-curvature="0"
             id="path38"
             style="fill:none;stroke:#ffffff;stroke-width:1;stroke-linecap:butt;stroke-linejoin:miter;stroke-miterlimit:10;stroke-dasharray:none;stroke-opacity:1"
             d="M 0,100 V 420" />
        </g>
        <g
           transform="matrix(0.75049508,0,0,0.75049508,0,192.77966)"
           id="g40">
          <path
             inkscape:connector-curvature="0"
             id="path42"
             style="fill:#000000;fill-opacity:1;fill-rule:nonzero;stroke:none"
             d="M 80,0 H 401" />
          <path
             inkscape:connector-curvature="0"
             id="path44"
             style="fill:none;stroke:#ffffff;stroke-width:1;stroke-linecap:butt;stroke-linejoin:miter;stroke-miterlimit:10;stroke-dasharray:none;stroke-opacity:1"
             d="M 80,0 H 401" />
        </g>
      </g>
    </g>
    <g
       id="g46">
      <g
         clip-path="url(#clipPath52)"
         id="g48">
        <g
           transform="matrix(0.75049508,0,0,0.75049508,60.039604,75.049507)"
           id="g54">
          <path
             inkscape:connector-curvature="0"
             id="path56"
             style="fill:none;stroke:#000000;stroke-width:1;stroke-linecap:butt;stroke-linejoin:miter;stroke-miterlimit:10;stroke-dasharray:none;stroke-opacity:1"
             d="M 298.70001,156.86999 298,142.72 l -0.09,-0.88 -2.17999,-13.99 -0.18002,-0.87 -3.35999,-12.84 -0.26999,-0.84 -4.96002,-13.24 -0.35,-0.81 -6.75,-13.389999 -0.43998,-0.760003 L 271.22,72.57 l -0.51999,-0.709999 -10.13,-12.14 -0.60001,-0.639999 -9.47999,-9.120003 -0.66001,-0.57 -11.04001,-8.61 -0.71998,-0.5 -12.65001,-7.770001 -0.77001,-0.41 L 212.03,26.16 211.22,25.83 197.21001,21.059999 196.37,20.83 182.78,17.84 181.92999,17.700001 167.23,16.17 l -0.86001,-0.04 -13.90998,0.110001 -0.86,0.05 -13.81002,1.629999 -0.86,0.139999 L 122.53,21.42 121.7,21.67 108.57,26.32 107.76,26.66 94.43,33.139999 93.669998,33.57 81.860001,41.029999 81.139999,41.540001 70.18,50.25 l -0.660003,0.580002 -10.579998,10.5 -0.590001,0.66 L 49.52,72.93 49,73.639999 40.919998,86.25 40.490002,87.010002 34.209999,99.660004 33.860001,100.47 28.68,114.57 l -0.26,0.84 -3.59,14.61 -0.16,0.87 -1.870001,14.03999 -0.07,0.88001 -0.4,14.17 0.03,0.88 0.979999,13.25 0.110001,0.88001 2.479999,13.93998 0.199999,0.86 3.92,13.60001 0.290001,0.83 4.950001,12.28999 0.369999,0.80001 7.040001,13.24 0.459999,0.75 7.93,11.64 0.529999,0.7 9.110001,10.71001 0.600002,0.64 10.839996,10.22999 0.669998,0.56 11.170006,8.42999 0.729996,0.49002 12.770004,7.56 0.769997,0.41 14.340003,6.35999 0.82,0.29999 13.29,4.15002 0.84,0.20999 13.65,2.68 0.86,0.11999 13.86,1.18002 0.87,0.03 14.76001,-0.40002 0.86999,-0.08 14.62,-2.1 0.85,-0.16999 13.47,-3.51001 0.83001,-0.26001 13.03,-4.94998 0.79998,-0.35001 L 229.22,279.1 l 0.76,-0.45002 10.94,-7.20999 0.71,-0.51999 10.83001,-8.88 0.64,-0.59 9.83999,-10.02002 0.57999,-0.64999 9.24002,-11.75 0.50998,-0.72 7.45001,-11.95999 0.42999,-0.77001 6.5,-13.52 0.34,-0.81 4.72,-13.34 0.25,-0.83999 3.60001,-15.51 0.14999,-0.88001 L 298.31,167.5 l 0.06,-0.89 0.33001,-9.74001" />
          <path
             inkscape:connector-curvature="0"
             id="path58"
             style="fill:none;stroke:#ff0000;stroke-width:1;stroke-linecap:butt;stroke-linejoin:miter;stroke-miterlimit:10;stroke-dasharray:none;stroke-opacity:1"
             d="m 228.91,36.09 -28.72,2.07 -1.38,0.07 -33.42,0.95 -1.39,0.01 -30.71001,-0.48 -1.39,-0.05 L 94.800003,36.330002 93.440002,36.220001 92.089996,36.09" />
          <path
             inkscape:connector-curvature="0"
             id="path60"
             style="fill:none;stroke:#ff0000;stroke-width:1;stroke-linecap:butt;stroke-linejoin:miter;stroke-miterlimit:10;stroke-dasharray:none;stroke-opacity:1"
             d="m 228.91,36.09 -36.83,25.099999 -2,1.319999 -41.25,26.130001 -2.11,1.279999 -40.5,23.750002 -2.15,1.21 -44.900002,24.23999 -2.109997,1.09002 L 23.68,156.86999" />
          <path
             inkscape:connector-curvature="0"
             id="path62"
             style="fill:none;stroke:#ff0000;stroke-width:1;stroke-linecap:butt;stroke-linejoin:miter;stroke-miterlimit:10;stroke-dasharray:none;stroke-opacity:1"
             d="M 228.91,36.09 210.67,97 209.91,99.629997 190.05,172.22 l -0.71,2.72 -17.26999,69.97 -0.61,2.64 L 160.5,296.34" />
          <path
             inkscape:connector-curvature="0"
             id="path64"
             style="fill:none;stroke:#ff0000;stroke-width:1;stroke-linecap:butt;stroke-linejoin:miter;stroke-miterlimit:10;stroke-dasharray:none;stroke-opacity:1"
             d="m 228.91,36.09 13.87,28.899998 0.64,1.25 13.93001,26.230003 0.69,1.239998 L 274.5,121.82 l 0.73999,1.2 18.19,28.17 0.78,1.14 3.11002,4.53999" />
          <path
             inkscape:connector-curvature="0"
             id="path66"
             style="fill:none;stroke:#008000;stroke-width:1;stroke-linecap:butt;stroke-linejoin:miter;stroke-miterlimit:10;stroke-dasharray:none;stroke-opacity:1"
             d="m 228.91,36.09 -11.93,6.09 -1.2,0.540001 -14.3,5.360001 -1.4,0.429996 -13.25999,3.290001 L 185.28999,52.09 171.05,53.939999 169.44,54.060001 154.81,54.23 153.17999,54.15 138.82001,52.619997 137.25999,52.359999 123.77,49.34 122.34,48.93 108.91,44.279999 107.66,43.759998 94.099998,37.220001 93.080002,36.66 92.089996,36.09" />
          <path
             inkscape:connector-curvature="0"
             id="path68"
             style="fill:none;stroke:#008000;stroke-width:1;stroke-linecap:butt;stroke-linejoin:miter;stroke-miterlimit:10;stroke-dasharray:none;stroke-opacity:1"
             d="m 228.91,36.09 -16.43,17.919998 -1.48999,1.520001 -16.94001,16.069999 -1.89,1.669999 -18.6,15.280006 -2.23,1.699997 -18.86,13.35 -2.46001,1.62 -20.33999,12.31 -2.6,1.44 -20.84,10.63001 L 103.64,130.8 80.889999,140.35001 78.449997,141.27 55.470001,148.96001 53.34,149.59 30.280001,155.48 28.58,155.85001 l -4.9,1.01998" />
          <path
             inkscape:connector-curvature="0"
             id="path70"
             style="fill:none;stroke:#008000;stroke-width:1;stroke-linecap:butt;stroke-linejoin:miter;stroke-miterlimit:10;stroke-dasharray:none;stroke-opacity:1"
             d="M 228.91,36.09 215.75999,66.830002 214.85001,69.120003 202.28,102.73 l -0.99001,2.86 -9.78,30.29 -0.93998,3.17 -8.86,32.34 -0.82001,3.25999 -7.87,35.21001 -0.62001,3.10001 -6.03,34.71998 -0.39999,2.66001 -4.59,36.78 -0.19,1.92999 -0.69,7.29001" />
          <path
             inkscape:connector-curvature="0"
             id="path72"
             style="fill:none;stroke:#008000;stroke-width:1;stroke-linecap:butt;stroke-linejoin:miter;stroke-miterlimit:10;stroke-dasharray:none;stroke-opacity:1"
             d="m 228.91,36.09 0.94001,14.900002 0.14999,1.34 2.77,15.419998 0.36,1.459999 4,13.389999 0.54,1.5 5.71,13.480004 0.73,1.479996 7.31999,12.910002 0.89002,1.39 8.58999,11.78 1.01001,1.22 9.37,10.23 1.06,1.04 11.72998,10.15999 1.05001,0.81002 12.19001,8.26998" />
          <path
             inkscape:connector-curvature="0"
             id="path74"
             style="fill:none;stroke:#0000ff;stroke-width:1;stroke-linecap:butt;stroke-linejoin:miter;stroke-miterlimit:10;stroke-dasharray:none;stroke-opacity:1"
             d="m 228.91,36.09 -6.26001,9.14 -0.72,0.900001 -7.64999,8.169998 -1.58,1.440003 -8.02001,6.199997 -2.46998,1.61 L 193.56,68.239998 190.25999,69.68 179.23,73.279999 l -4,0.870003 -12.59,1.369995 h -4.28 l -12.59,-1.369995 -4,-0.870003 L 130.74,69.68 127.44,68.239998 116.32,61.939999 114.04,60.34 l -8.76,-7.41 -1.31,-1.310001 -7.389998,-8.719997 -0.480004,-0.66 L 92.089996,36.09" />
          <path
             inkscape:connector-curvature="0"
             id="path76"
             style="fill:none;stroke:#0000ff;stroke-width:1;stroke-linecap:butt;stroke-linejoin:miter;stroke-miterlimit:10;stroke-dasharray:none;stroke-opacity:1"
             d="M 228.91,36.09 219.28999,51.5 218.17,53.130001 208.61,66.07 l -2.19,2.730003 -10.95,12.529999 -3.35,3.509994 -11.62,11.150002 -4.41,3.86 -14.7,11.610002 -5.34,3.78 -16.96,10.63 -5.85,3.22 -17.6,8.47 -5.75,2.40001 -16.419999,5.87999 -5.099998,1.55999 -18.100006,4.53 -3.899994,0.78002 -18.410004,2.75999 -2.309997,0.24001 -18.590003,1.11999 -0.469999,0.01 -2.91,0.03" />
          <path
             inkscape:connector-curvature="0"
             id="path78"
             style="fill:none;stroke:#0000ff;stroke-width:1;stroke-linecap:butt;stroke-linejoin:miter;stroke-miterlimit:10;stroke-dasharray:none;stroke-opacity:1"
             d="m 228.91,36.09 -11.16999,20.93 -1.14,2.270001 -12.43001,26.729996 -1.95,4.580001 -10.59,27.260002 -2.19,6.26 -8.46,26.95001 -1.96,7.05999 -6.82,28.26999 -1.41001,6.87001 -4.45999,25.65 -0.83,5.82001 -3.17999,28.87999 -0.30001,3.79 -1.40001,28.97 -0.02,1.10001 -0.1,8.85999" />
          <path
             inkscape:connector-curvature="0"
             id="path80"
             style="fill:none;stroke:#0000ff;stroke-width:1;stroke-linecap:butt;stroke-linejoin:miter;stroke-miterlimit:10;stroke-dasharray:none;stroke-opacity:1"
             d="m 228.91,36.09 -4.25,9.099999 -0.38,1 -3.08,9.960003 -0.45,1.959999 -1.69,12.290001 -0.13001,2.989997 0.34001,9.989998 0.43,3.630005 2.46,11.540001 1.26,3.959997 5.13,11.8 2.14,3.78 7.45,10.41999 2.75,3.10001 8.57001,7.94 2.86999,2.19 10.90999,6.67 2.5,1.20999 10.68002,4.03 1.75998,0.5 11.11002,2.17002 0.79999,0.09 7.23001,0.45999" />
        </g>
        <g
           transform="matrix(0.75049508,0,0,0.75049508,232.35327,101.21927)"
           id="g82">
          <path
             inkscape:connector-curvature="0"
             id="path84"
             style="fill:#ffff00;fill-opacity:1;fill-rule:nonzero;stroke:none"
             d="M 5,0 C 5,3.3333335 3.3333335,5 0,5 -3.3333335,5 -5,3.3333335 -5,0 c 0,-3.3333335 1.6666665,-5 5,-5 3.3333335,0 5,1.6666665 5,5 z" />
          <path
             inkscape:connector-curvature="0"
             id="path86"
             style="fill:none;stroke:#444444;stroke-width:1;stroke-linecap:butt;stroke-linejoin:miter;stroke-miterlimit:10;stroke-dasharray:none;stroke-opacity:1"
             d="M 5,0 C 5,3.3333335 3.3333335,5 0,5 -3.3333335,5 -5,3.3333335 -5,0 c 0,-3.3333335 1.6666665,-5 5,-5 3.3333335,0 5,1.6666665 5,5 z" />
        </g>
        <g
           transform="matrix(0.75049508,0,0,0.75049508,128.63486,101.21927)"
           id="g88">
          <path
             inkscape:connector-curvature="0"
             id="path90"
             style="fill:#ffff00;fill-opacity:1;fill-rule:nonzero;stroke:none"
             d="M 5,0 C 5,3.3333335 3.3333335,5 0,5 -3.3333335,5 -5,3.3333335 -5,0 c 0,-3.3333335 1.6666665,-5 5,-5 3.3333335,0 5,1.6666665 5,5 z" />
          <path
             inkscape:connector-curvature="0"
             id="path92"
             style="fill:none;stroke:#444444;stroke-width:1;stroke-linecap:butt;stroke-linejoin:miter;stroke-miterlimit:10;stroke-dasharray:none;stroke-opacity:1"
             d="M 5,0 C 5,3.3333335 3.3333335,5 0,5 -3.3333335,5 -5,3.3333335 -5,0 c 0,-3.3333335 1.6666665,-5 5,-5 3.3333335,0 5,1.6666665 5,5 z" />
        </g>
        <g
           transform="matrix(0.75049508,0,0,0.75049508,76.775642,192.77966)"
           id="g94">
          <path
             inkscape:connector-curvature="0"
             id="path96"
             style="fill:#ffff00;fill-opacity:1;fill-rule:nonzero;stroke:none"
             d="M 5,0 C 5,3.3333335 3.3333335,5 0,5 -3.3333335,5 -5,3.3333335 -5,0 c 0,-3.3333335 1.6666665,-5 5,-5 3.3333335,0 5,1.6666665 5,5 z" />
          <path
             inkscape:connector-curvature="0"
             id="path98"
             style="fill:none;stroke:#444444;stroke-width:1;stroke-linecap:butt;stroke-linejoin:miter;stroke-miterlimit:10;stroke-dasharray:none;stroke-opacity:1"
             d="M 5,0 C 5,3.3333335 3.3333335,5 0,5 -3.3333335,5 -5,3.3333335 -5,0 c 0,-3.3333335 1.6666665,-5 5,-5 3.3333335,0 5,1.6666665 5,5 z" />
        </g>
        <g
           transform="matrix(0.75049508,0,0,0.75049508,180.49406,298.50943)"
           id="g100">
          <path
             inkscape:connector-curvature="0"
             id="path102"
             style="fill:#ffff00;fill-opacity:1;fill-rule:nonzero;stroke:none"
             d="M 5,0 C 5,3.3333335 3.3333335,5 0,5 -3.3333335,5 -5,3.3333335 -5,0 c 0,-3.3333335 1.6666665,-5 5,-5 3.3333335,0 5,1.6666665 5,5 z" />
          <path
             inkscape:connector-curvature="0"
             id="path104"
             style="fill:none;stroke:#444444;stroke-width:1;stroke-linecap:butt;stroke-linejoin:miter;stroke-miterlimit:10;stroke-dasharray:none;stroke-opacity:1"
             d="M 5,0 C 5,3.3333335 3.3333335,5 0,5 -3.3333335,5 -5,3.3333335 -5,0 c 0,-3.3333335 1.6666665,-5 5,-5 3.3333335,0 5,1.6666665 5,5 z" />
        </g>
        <g
           transform="matrix(0.75049508,0,0,0.75049508,284.21249,192.77966)"
           id="g106">
          <path
             inkscape:connector-curvature="0"
             id="path108"
             style="fill:#ffff00;fill-opacity:1;fill-rule:nonzero;stroke:none"
             d="M 5,0 C 5,3.3333335 3.3333335,5 0,5 -3.3333335,5 -5,3.3333335 -5,0 c 0,-3.3333335 1.6666665,-5 5,-5 3.3333335,0 5,1.6666665 5,5 z" />
          <path
             inkscape:connector-curvature="0"
             id="path110"
             style="fill:none;stroke:#444444;stroke-width:1;stroke-linecap:butt;stroke-linejoin:miter;stroke-miterlimit:10;stroke-dasharray:none;stroke-opacity:1"
             d="M 5,0 C 5,3.3333335 3.3333335,5 0,5 -3.3333335,5 -5,3.3333335 -5,0 c 0,-3.3333335 1.6666665,-5 5,-5 3.3333335,0 5,1.6666665 5,5 z" />
        </g>
        <g
           transform="matrix(0.75049508,0,0,0.75049508,60.039604,67.356934)"
           id="g112">
          <text
             id="text116"
             style="font-variant:normal;font-weight:normal;font-size:12px;font-family:Verdana;-inkscape-font-specification:Verdana;writing-mode:lr-tb;fill:#2a3f5f;fill-opacity:1;fill-rule:nonzero;stroke:none"
             transform="translate(222.04727,34.869999)"><tspan
               id="tspan114"
               sodipodi:role="line"
               y="0"
               x="0 7.4765625">p1</tspan></text>
          <text
             id="text120"
             style="font-variant:normal;font-weight:normal;font-size:12px;font-family:Verdana;-inkscape-font-specification:Verdana;writing-mode:lr-tb;fill:#2a3f5f;fill-opacity:1;fill-rule:nonzero;stroke:none"
             transform="translate(83.847267,34.869999)"><tspan
               id="tspan118"
               sodipodi:role="line"
               y="0"
               x="0 7.4765625">p2</tspan></text>
        </g>
        <g
           transform="matrix(0.75049508,0,0,0.75049508,54.598515,77.300995)"
           id="g122">
          <text
             id="text126"
             style="font-variant:normal;font-weight:normal;font-size:12px;font-family:Verdana;-inkscape-font-specification:Verdana;writing-mode:lr-tb;fill:#2a3f5f;fill-opacity:1;fill-rule:nonzero;stroke:none"
             transform="translate(7.1945305,156.86999)"><tspan
               id="tspan124"
               sodipodi:role="line"
               y="0"
               x="0 7.4765625">p3</tspan></text>
        </g>
        <g
           transform="matrix(0.75049508,0,0,0.75049508,60.039604,87.245056)"
           id="g128">
          <text
             id="text132"
             style="font-variant:normal;font-weight:normal;font-size:12px;font-family:Verdana;-inkscape-font-specification:Verdana;writing-mode:lr-tb;fill:#2a3f5f;fill-opacity:1;fill-rule:nonzero;stroke:none"
             transform="translate(152.94727,297.75)"><tspan
               id="tspan130"
               sodipodi:role="line"
               y="0"
               x="0 7.4765625">p4</tspan></text>
        </g>
        <g
           transform="matrix(0.75049508,0,0,0.75049508,65.48069,77.300995)"
           id="g134">
          <text
             id="text138"
             style="font-variant:normal;font-weight:normal;font-size:12px;font-family:Verdana;-inkscape-font-specification:Verdana;writing-mode:lr-tb;fill:#2a3f5f;fill-opacity:1;fill-rule:nonzero;stroke:none"
             transform="translate(298.70001,156.86999)"><tspan
               id="tspan136"
               sodipodi:role="line"
               y="0"
               x="0 7.4765625">p5</tspan></text>
        </g>
      </g>
    </g>
    <g
       id="g140">
      <g
         clip-path="url(#clipPath146)"
         id="g142">
        <g
           transform="matrix(0.75049508,0,0,0.75049508,305.76672,75.049507)"
           id="g148">
          <path
             inkscape:connector-curvature="0"
             id="path150"
             style="fill:#000000;fill-opacity:0;fill-rule:nonzero;stroke:none"
             d="M 0,0 H 81 V 67 H 0 Z" />
        </g>
      </g>
    </g>
    <g
       id="g152">
      <g
         clip-path="url(#clipPath158)"
         id="g154">
        <g
           transform="matrix(0.75049508,0,0,0.75049508,305.76672,85.931686)"
           id="g160">
          <text
             id="text164"
             style="font-variant:normal;font-weight:normal;font-size:12px;font-family:Verdana;-inkscape-font-specification:Verdana;writing-mode:lr-tb;fill:#2a3f5f;fill-opacity:1;fill-rule:nonzero;stroke:none"
             transform="translate(40,4.6799998)"><tspan
               id="tspan162"
               sodipodi:role="line"
               y="0"
               x="0 6.2519531 16.072266 23.701172 28.066406">c=0.1</tspan></text>
          <path
             inkscape:connector-curvature="0"
             id="path166"
             style="fill:none;stroke:#ff0000;stroke-width:1;stroke-linecap:butt;stroke-linejoin:miter;stroke-miterlimit:10;stroke-dasharray:none;stroke-opacity:1"
             d="M 5,0 H 35" />
          <path
             inkscape:connector-curvature="0"
             id="path168"
             style="fill:#000000;fill-opacity:0;fill-rule:nonzero;stroke:none"
             d="m 0,-9.5 h 121 v 19 H 0 Z" />
        </g>
        <g
           transform="matrix(0.75049508,0,0,0.75049508,305.76672,100.19109)"
           id="g170">
          <text
             id="text174"
             style="font-variant:normal;font-weight:normal;font-size:12px;font-family:Verdana;-inkscape-font-specification:Verdana;writing-mode:lr-tb;fill:#2a3f5f;fill-opacity:1;fill-rule:nonzero;stroke:none"
             transform="translate(40,4.6799998)"><tspan
               id="tspan172"
               sodipodi:role="line"
               y="0"
               x="0 6.2519531 16.072266 23.701172 28.066406">c=0.5</tspan></text>
          <path
             inkscape:connector-curvature="0"
             id="path176"
             style="fill:none;stroke:#008000;stroke-width:1;stroke-linecap:butt;stroke-linejoin:miter;stroke-miterlimit:10;stroke-dasharray:none;stroke-opacity:1"
             d="M 5,0 H 35" />
          <path
             inkscape:connector-curvature="0"
             id="path178"
             style="fill:#000000;fill-opacity:0;fill-rule:nonzero;stroke:none"
             d="m 0,-9.5 h 121 v 19 H 0 Z" />
        </g>
        <g
           transform="matrix(0.75049508,0,0,0.75049508,305.76672,114.4505)"
           id="g180">
          <text
             id="text184"
             style="font-variant:normal;font-weight:normal;font-size:12px;font-family:Verdana;-inkscape-font-specification:Verdana;writing-mode:lr-tb;fill:#2a3f5f;fill-opacity:1;fill-rule:nonzero;stroke:none"
             transform="translate(40,4.6799998)"><tspan
               id="tspan182"
               sodipodi:role="line"
               y="0"
               x="0 6.2519531 16.072266">c=1</tspan></text>
          <path
             inkscape:connector-curvature="0"
             id="path186"
             style="fill:none;stroke:#0000ff;stroke-width:1;stroke-linecap:butt;stroke-linejoin:miter;stroke-miterlimit:10;stroke-dasharray:none;stroke-opacity:1"
             d="M 5,0 H 35" />
          <path
             inkscape:connector-curvature="0"
             id="path188"
             style="fill:#000000;fill-opacity:0;fill-rule:nonzero;stroke:none"
             d="m 0,-9.5 h 121 v 19 H 0 Z" />
        </g>
      </g>
    </g>
  </g>
</svg>
